<?xml version="1.0" encoding="utf-8"?>
<!-- Generator: Adobe Illustrator 26.5.0, SVG Export Plug-In . SVG Version: 6.00 Build 0)  -->
<svg version="1.1" id="Robot_unplugg_animation_dark" image-rendering="auto"
	 xmlns="http://www.w3.org/2000/svg" xmlns:xlink="http://www.w3.org/1999/xlink" x="0px" y="0px" viewBox="0 0 550 262.8"
	 style="enable-background:new 0 0 550 262.8;" xml:space="preserve">
<style type="text/css">
	.st0{fill:url(#SVGID_1_);}
	.st1{fill:url(#SVGID_00000092452536486374061390000001362551163600095629_);}
	.st2{fill:#5B96CC;}
	.st3{fill:none;stroke:#5B96CC;stroke-width:4.45;stroke-miterlimit:10;}
	.st4{fill:url(#SVGID_00000065037020869749532070000016791304773469524634_);}
	.st5{fill:url(#SVGID_00000067201662869054354090000008668045217213471362_);}
	.st6{fill:url(#SVGID_00000069380637820608907720000017511259798707136184_);}
	.st7{fill:#F0C34F;}
	.st8{display:none;}
	.st9{display:inline;}
	
		.st10{fill:none;stroke:url(#Layer27_0_1_STROKES_00000168114943026231401960000010214805392851243421_);stroke-width:11;stroke-miterlimit:10;}
	
		.st11{fill:none;stroke:url(#Layer26_0_1_STROKES_00000085957030122798092380000009897604756765130923_);stroke-width:11;stroke-miterlimit:10;}
	
		.st12{fill:none;stroke:url(#Layer25_0_1_STROKES_00000128470560046360586630000005777528929256252544_);stroke-width:11;stroke-miterlimit:10;}
	
		.st13{fill:none;stroke:url(#Layer50_0_1_STROKES_00000181779243733092100960000013863946539513277065_);stroke-width:11;stroke-miterlimit:10;}
	
		.st14{fill:none;stroke:url(#Layer51_0_1_STROKES_00000104682914008357036260000013631200172328356543_);stroke-width:11;stroke-miterlimit:10;}
	.st15{fill:url(#SVGID_00000145772828719037229400000003124464979034616201_);}
	.st16{fill:url(#SVGID_00000103970266699425303390000006778407985218219157_);}
	.st17{fill:none;stroke:#5B96CC;stroke-width:5.65;stroke-miterlimit:10;}
	.st18{fill:#90C5E9;}
	.st19{fill:#244173;}
	.st20{fill:url(#SVGID_00000068663931442164023700000008736460100117770657_);}
	
		.st21{fill:none;stroke:url(#Layer13_0_1_STROKES_00000091009571887929144700000005612824184806915492_);stroke-width:6;stroke-linecap:round;stroke-miterlimit:10;}
	.st22{fill:#E38D44;}
	.st23{fill:#DF623B;}
	
		.st24{fill:none;stroke:url(#Layer7_0_1_STROKES_00000091012849479785914510000011514536902178349498_);stroke-width:6;stroke-linecap:round;stroke-miterlimit:10;}
	
		.st25{fill:none;stroke:url(#Layer1_0_1_STROKES_00000059278759005405043170000009831852926607776663_);stroke-width:6;stroke-linecap:round;stroke-miterlimit:10;}
	.st26{display:inline;fill:#D2E6F5;}
	.st27{fill:#D2E6F5;}
	
		.st28{fill:none;stroke:url(#Layer36_0_1_STROKES_00000081634401654746872000000016385311810196606619_);stroke-width:11;stroke-linecap:round;stroke-miterlimit:10;}
	
		.st29{fill:none;stroke:url(#Layer35_0_1_STROKES_00000099642855726976676670000013231200057593616569_);stroke-width:11;stroke-linecap:round;stroke-miterlimit:10;}
	
		.st30{fill:none;stroke:url(#Layer34_0_1_STROKES_00000009575843759710547750000011473030350774153621_);stroke-width:11;stroke-linecap:round;stroke-miterlimit:10;}
	
		.st31{fill:none;stroke:url(#Layer66_0_1_STROKES_00000094614284241419521970000006524035141007455929_);stroke-width:6;stroke-linecap:round;stroke-miterlimit:10;}
	.st32{fill:none;stroke:#DF623B;stroke-width:2;stroke-miterlimit:10;}
</style>
<g id="Scene-1">
	<g id="Symbol-99" transform="translate(275.2 183.4)">
		
			<linearGradient id="SVGID_1_" gradientUnits="userSpaceOnUse" x1="-275.175" y1="331.0521" x2="-275.175" y2="41.5521" gradientTransform="matrix(1 0 0 -1 275.2 154.0042)">
			<stop  offset="0.1255" style="stop-color:#4777AD;stop-opacity:0"/>
			<stop  offset="0.5961" style="stop-color:#4777AD;stop-opacity:0.498"/>
			<stop  offset="0.9608" style="stop-color:#4777AD;stop-opacity:0"/>
		</linearGradient>
		<path class="st0" d="M215.1-177l-141.4,0.8l-288.8,288.7h140.6L215.1-177z"/>
		
			<linearGradient id="SVGID_00000003785537597958895230000016470025544484023190_" gradientUnits="userSpaceOnUse" x1="-215.7" y1="251.7021" x2="-215.7" y2="74.6521" gradientTransform="matrix(1 0 0 -1 275.2 154.0042)">
			<stop  offset="0.1176" style="stop-color:#4777AD;stop-opacity:0"/>
			<stop  offset="1" style="stop-color:#4777AD;stop-opacity:0.498"/>
		</linearGradient>
		<path style="fill:url(#SVGID_00000003785537597958895230000016470025544484023190_);" d="M210.1-97.7l-125,0.5L-91.1,79.4H33.3
			L210.1-97.7z"/>
	</g>
	<g id="Symbol-98" transform="translate(213.6 32.3)">
		
			<animateTransform  accumulate="none" additive="replace" attributeName="transform" calcMode="linear" dur="9.042s" fill="remove" keyTimes="0;.005;.009;.014;.018;.023;.028;.032;.037;.041;.046;.051;.055;.06;.065;.069;.074;.078;.083;.088;.092;.097;.101;.106;.111;.115;.12;.124;.129;.433;.438;.442;.447;.452;.456;.461;1" repeatCount="indefinite" restart="always" type="translate" values="228.45,80.45;228.501,80.45;228.453,80.498;228.505,80.447;228.505,80.547;228.508,80.546;228.459,80.496;228.46,80.494;228.512,80.444;228.461,80.532;228.462,80.482;228.514,80.431;228.516,80.531;228.517,80.48;228.469,80.53;228.471,80.529;228.522,80.479;228.52,80.514;228.472,80.464;228.524,80.513;228.525,80.513;228.527,80.512;228.528,80.512;228.48,80.46;228.53,80.509;228.479,80.544;230.53,79.494;232.582,78.494;234.635,77.543;234.635,77.543;234.633,77.426;234.632,77.424;234.623,77.373;234.667,77.406;234.635,77.419;234.632,77.439;234.632,77.439">
			</animateTransform>
		
			<animateTransform  accumulate="none" additive="sum" attributeName="transform" calcMode="linear" dur="9.042s" fill="remove" keyTimes="0;.005;.009;.014;.018;.023;.028;.032;.037;.041;.046;.051;.055;.06;.065;.069;.074;.078;.083;.088;.092;.097;.101;.106;.111;.115;.12;.124;.129;.438;.442;.447;.452;.456;.461;1" repeatCount="indefinite" restart="always" type="rotate" values="0,0,0;-.008,0,0;-.015,0,0;-.023,0,0;-.03,0,0;-.038,0,0;-.045,0,0;-.052,0,0;-.06,0,0;-.255,0,0;-.262,0,0;-.27,0,0;-.277,0,0;-.285,0,0;-.295,0,0;-.302,0,0;-.31,0,0;-.505,0,0;-.512,0,0;-.52,0,0;-.527,0,0;-.535,0,0;-.543,0,0;-.55,0,0;-.558,0,0;-.753,0,0;-.76,0,0;-.768,0,0;-.777,0,0;-.777,0,0;-.776,0,0;-6.761,0,0;-12.563,0,0;-5.036,0,0;2.294,0,0;2.294,0,0">
			</animateTransform>
		
			<animateTransform  accumulate="none" additive="sum" attributeName="transform" calcMode="linear" dur="9.042s" fill="remove" keyTimes="0;.442;.447;.456;.461;1" repeatCount="indefinite" restart="always" type="scale" values="1,1;1,1;1,.999;1,.999;1,1;1,1">
			</animateTransform>
		
			<animateTransform  accumulate="none" additive="sum" attributeName="transform" calcMode="linear" dur="9.042s" fill="remove" keyTimes="0;.005;.009;.014;.018;.023;.028;.032;.037;.041;.046;.051;.055;.06;.069;.074;.078;.083;.088;.092;.106;.111;.115;.12;.124;.129;.433;.438;.442;.447;.452;.456;.461;1" repeatCount="indefinite" restart="always" type="translate" values="-14.85,-48.15;-14.95,-48.15;-14.9,-48.25;-14.95,-48.15;-14.9,-48.3;-14.9,-48.2;-14.9,-48.25;-14.9,-48.2;-14.95,-48.2;-14.95,-48.25;-14.95,-48.25;-15,-48.15;-14.95,-48.25;-14.9,-48.25;-14.9,-48.25;-14.95,-48.25;-14.95,-48.2;-14.95,-48.25;-15,-48.2;-14.95,-48.25;-14.95,-48.25;-15,-48.2;-14.95,-48.25;-14.95,-48.2;-14.9,-48.25;-14.9,-48.3;-14.9,-48.3;-16.2,-48.15;-16.25,-48.2;-16.2,-48.05;-16.3,-48.15;-16.25,-48.2;-16.25,-48.15;-16.25,-48.15">
			</animateTransform>
		<path class="st2" d="M8.4,8.7c-1.9,2.1-2.9,4.5-2.8,7.4c0.1,2.8,1.2,5.2,3.2,7.1c2.1,1.9,4.5,2.8,7.4,2.8c2.8-0.1,5.2-1.1,7.2-3.2
			c1.9-2.1,2.9-4.5,2.8-7.4c-0.1-2.8-1.2-5.2-3.2-7.2c-2.1-1.9-4.5-2.8-7.4-2.8C12.8,5.6,10.4,6.6,8.4,8.7z"/>
		<path id="Layer30_0_1_STROKES" class="st3" d="M14.8,14.2l-7-41"/>
		<path class="st2" d="M10.6-25.5c0.8-0.8,1.1-1.8,1-2.9c0-1.1-0.4-2.1-1.2-2.9c-0.8-0.8-1.8-1.1-2.9-1.1c-1.1,0.1-2.1,0.5-2.8,1.3
			c-0.7,0.8-1.1,1.8-1.1,2.9c0,1.1,0.4,2,1.2,2.8s1.8,1.1,2.9,1.1S9.8-24.7,10.6-25.5z"/>
	</g>
	<g id="Symbol-97" transform="translate(229.15 40.05)">
		
			<animateTransform  accumulate="none" additive="replace" attributeName="transform" calcMode="linear" dur="9.042s" fill="remove" keyTimes="0;.115;.12;.124;.129;1" repeatCount="indefinite" restart="always" type="translate" values="293.6,117.1;293.6,117.1;293.643,117.115;293.6,117.132;293.601,117.125;293.601,117.125">
			</animateTransform>
		
			<animateTransform  accumulate="none" additive="sum" attributeName="transform" calcMode="linear" dur="9.042s" fill="remove" keyTimes="0;.115;.12;.124;.129;1" repeatCount="indefinite" restart="always" type="rotate" values="0,0,0;0,0,0;2.288,0,0;4.766,0,0;7.055,0,0;7.055,0,0">
			</animateTransform>
		
			<animateTransform  accumulate="none" additive="sum" attributeName="transform" calcMode="linear" dur="9.042s" fill="remove" keyTimes="0;.12;.124;1" repeatCount="indefinite" restart="always" type="scale" values="1,1;1,1;1,.999;1,.999">
			</animateTransform>
		
			<animateTransform  accumulate="none" additive="sum" attributeName="transform" calcMode="linear" dur="9.042s" fill="remove" keyTimes="0;.115;.12;.124;.129;1" repeatCount="indefinite" restart="always" type="translate" values="-64.45,-77.05;-64.45,-77.05;-64.55,-77.1;-64.45,-77.15;-64.45,-77.1;-64.45,-77.1">
			</animateTransform>
		
			<linearGradient id="SVGID_00000100379386845469349530000013097546556802561466_" gradientUnits="userSpaceOnUse" x1="-221.935" y1="262.3385" x2="-171.61" y2="314.3635" gradientTransform="matrix(1 0 0 -1 229.15 297.3542)">
			<stop  offset="4.705000e-02" style="stop-color:#D2E6F5"/>
			<stop  offset="0.1686" style="stop-color:#CCE3F4"/>
			<stop  offset="0.3372" style="stop-color:#BCDBF1"/>
			<stop  offset="0.5333" style="stop-color:#A2CEED"/>
			<stop  offset="0.6588" style="stop-color:#90C5E9"/>
		</linearGradient>
		<path style="fill:url(#SVGID_00000100379386845469349530000013097546556802561466_);" d="M56.7-9.5c-1.6-7.5-5.6-13.4-11.9-17.7
			c-6.3-4.3-13.3-5.9-20.8-4.6c-7.1,1.2-13,4.5-17.5,10.1S-0.2-9.8,0-2.6l6.2,47.4l58.3-11.2L56.7-9.5z"/>
		
			<linearGradient id="SVGID_00000098901346652532637940000013103222339683622298_" gradientUnits="userSpaceOnUse" x1="-191.2473" y1="300.9939" x2="-222.5023" y2="292.0603" gradientTransform="matrix(1 0 0 -1 229.15 297.3542)">
			<stop  offset="0.2784" style="stop-color:#58B6A5"/>
			<stop  offset="0.8353" style="stop-color:#41938A"/>
		</linearGradient>
		<path style="fill:url(#SVGID_00000098901346652532637940000013103222339683622298_);" d="M6.7,5.3c1.2,4.3,3.8,7.5,7.7,9.8
			c3.9,2.2,8,2.6,12.4,1.4c4.3-1.2,7.6-3.8,9.8-7.7c2.2-3.9,2.7-8.1,1.4-12.4c-1.2-4.3-3.8-7.6-7.7-9.8c-3.9-2.2-8.1-2.6-12.4-1.4
			C13.5-13.6,10.3-11,8.1-7C5.9-3.1,5.4,1,6.7,5.3z"/>
		
			<linearGradient id="SVGID_00000176760878072193945320000001923338553074650546_" gradientUnits="userSpaceOnUse" x1="-201.0629" y1="278.3018" x2="-208.5379" y2="273.6019" gradientTransform="matrix(1 0 0 -1 229.15 297.3542)">
			<stop  offset="0.2784" style="stop-color:#58B6A5"/>
			<stop  offset="0.8353" style="stop-color:#41938A"/>
		</linearGradient>
		<path style="fill:url(#SVGID_00000176760878072193945320000001923338553074650546_);" d="M21,23.1l6.7-0.2c0.4,0,0.8-0.2,1-0.5
			c0.3-0.3,0.5-0.7,0.5-1.1c0-0.4-0.2-0.8-0.5-1c-0.3-0.3-0.7-0.4-1.1-0.4L21,20c-0.4,0-0.8,0.2-1.1,0.5c-0.3,0.3-0.4,0.7-0.4,1.1
			c0,0.4,0.1,0.8,0.5,1C20.2,23,20.6,23.1,21,23.1z"/>
	</g>
	<g id="Symbol-96" transform="translate(244 79.45)">
		
			<animateTransform  accumulate="none" additive="replace" attributeName="transform" calcMode="linear" dur="9.042s" fill="remove" keyTimes="0;.115;.12;.124;.129;.207;.212;.217;.221;.226;.23;.327;.332;.336;.341;.346;.35;.355;.59;.594;.599;.604;.608;.613;1" repeatCount="indefinite" restart="always" type="translate" values="251.2,82.55;251.2,82.55;253.55,78.55;255.9,74.55;258.3,70.55;258.3,70.55;258.3,70.589;258.3,70.606;258.3,70.601;258.3,70.624;258.35,70.596;258.35,70.596;258.3,70.55;258.3,70.55;258.3,70.589;258.3,70.558;258.3,70.588;258.35,70.596;258.35,70.596;258.3,70.55;258.3,70.55;258.3,70.589;258.3,70.558;258.35,70.596;258.35,70.596">
			</animateTransform>
		
			<animateTransform  accumulate="none" additive="sum" attributeName="transform" calcMode="linear" dur="9.042s" fill="remove" keyTimes="0;.207;.212;.217;.221;.226;.23;.327;.332;.336;.341;.346;.35;.355;.59;.594;.599;.604;.608;.613;1" repeatCount="indefinite" restart="always" type="scale" values="1,1;1,1;1,.597;1,.194;1,.462;1,.73;1,1;1,1;1,1;1,1;1,.597;1,.194;1,.596;1,1;1,1;1,1;1,1;1,.597;1,.194;1,1;1,1">
			</animateTransform>
		
			<animateTransform  accumulate="none" additive="sum" attributeName="transform" calcMode="linear" dur="9.042s" fill="remove" keyTimes="0;.207;.212;.217;.221;.226;.23;.327;.332;.336;.341;.346;.35;.355;.59;.594;.599;.604;.608;.613;1" repeatCount="indefinite" restart="always" type="translate" values="-7.2,-3.1;-7.2,-3.1;-7.2,-3.25;-7.25,-3.65;-7.2,-3.25;-7.2,-3.25;-7.25,-3.2;-7.25,-3.2;-7.2,-3.1;-7.2,-3.1;-7.2,-3.25;-7.25,-3.4;-7.2,-3.25;-7.25,-3.2;-7.25,-3.2;-7.2,-3.1;-7.2,-3.1;-7.2,-3.25;-7.25,-3.4;-7.25,-3.2;-7.25,-3.2">
			</animateTransform>
		<path class="st7" d="M5.3-26.9c0.6-0.6,0.9-1.4,0.9-2.2c0-0.8-0.3-1.6-0.9-2.2C4.7-32,4-32.3,3.1-32.3c-0.8,0-1.6,0.3-2.2,0.9
			C0.3-30.8,0-30,0-29.2c0,0.9,0.3,1.6,0.9,2.2C1.5-26.3,2.2-26,3.1-26S4.7-26.3,5.3-26.9z"/>
		<path class="st7" d="M13.5-26.9c0.6-0.6,0.9-1.4,0.9-2.2c0-0.8-0.3-1.6-0.9-2.2c-0.6-0.6-1.3-0.9-2.2-0.9c-0.8,0-1.6,0.3-2.2,0.9
			c-0.6,0.6-0.9,1.4-0.9,2.2c0,0.9,0.3,1.6,0.9,2.2c0.6,0.6,1.3,0.9,2.2,0.9S12.9-26.3,13.5-26.9z"/>
	</g>
	<g class="st8">
		<g id="Symbol-94" transform="translate(183.4 119.75)" class="st9">
			
				<linearGradient id="Layer27_0_1_STROKES_00000065787598287888659850000017925174643541872039_" gradientUnits="userSpaceOnUse" x1="-159.4509" y1="192.6376" x2="-166.7579" y2="251.8183" gradientTransform="matrix(1 0 0 -1 183.4 217.6542)">
				<stop  offset="0.2784" style="stop-color:#58B6A5"/>
				<stop  offset="0.5529" style="stop-color:#56B3A3"/>
				<stop  offset="0.7961" style="stop-color:#41938A"/>
			</linearGradient>
			
				<path id="Layer27_0_1_STROKES" style="fill:none;stroke:url(#Layer27_0_1_STROKES_00000065787598287888659850000017925174643541872039_);stroke-width:11;stroke-miterlimit:10;" d="
				M46.4-32.3c-8.2,1.2-16.3,4.6-24.3,10.1C6.2-10.9-1.2,5.6,0.1,27.6"/>
		</g>
		
			<animate  accumulate="none" additive="replace" attributeName="display" calcMode="linear" dur="9.042s" fill="remove" keyTimes="0;.101;.249;1" repeatCount="indefinite" restart="always" values="none;inline;none;none">
			</animate>
	</g>
	<g class="st8">
		<g id="Symbol-93" transform="translate(188.15 119.75)" class="st9">
			
				<linearGradient id="Layer26_0_1_STROKES_00000000932671233794413050000015767941238618495649_" gradientUnits="userSpaceOnUse" x1="-165.8807" y1="193.0191" x2="-173.1807" y2="252.1431" gradientTransform="matrix(1 0 0 -1 188.15 217.6542)">
				<stop  offset="0.2784" style="stop-color:#58B6A5"/>
				<stop  offset="0.5529" style="stop-color:#56B3A3"/>
				<stop  offset="0.7961" style="stop-color:#41938A"/>
			</linearGradient>
			
				<path id="Layer26_0_1_STROKES" style="fill:none;stroke:url(#Layer26_0_1_STROKES_00000000932671233794413050000015767941238618495649_);stroke-width:11;stroke-miterlimit:10;" d="
				M41.7-32.3c-8.2,1.2-16.3,4.6-24.3,10.1C1.4-10.9-3.5,5.8,2.5,28.2"/>
		</g>
		
			<animate  accumulate="none" additive="replace" attributeName="display" calcMode="linear" dur="9.042s" fill="remove" keyTimes="0;.041;.101;.249;1" repeatCount="indefinite" restart="always" values="none;inline;none;inline;inline">
			</animate>
	</g>
	<g>
		<g id="Symbol-92" transform="translate(183.4 119.75)">
			
				<linearGradient id="Layer25_0_1_STROKES_00000017506123833907867790000005123587103034780296_" gradientUnits="userSpaceOnUse" x1="-159.4509" y1="192.6376" x2="-166.7579" y2="251.8183" gradientTransform="matrix(1 0 0 -1 183.4 217.6542)">
				<stop  offset="0.2784" style="stop-color:#58B6A5"/>
				<stop  offset="0.5529" style="stop-color:#56B3A3"/>
				<stop  offset="0.7961" style="stop-color:#41938A"/>
			</linearGradient>
			
				<path id="Layer25_0_1_STROKES" style="fill:none;stroke:url(#Layer25_0_1_STROKES_00000017506123833907867790000005123587103034780296_);stroke-width:11;stroke-miterlimit:10;" d="
				M46.4-32.3c-8.2,1.2-16.3,4.6-24.3,10.1C6.2-10.9-1.2,5.6,0.1,27.6"/>
		</g>
		
			<animate  accumulate="none" additive="replace" attributeName="display" calcMode="linear" dur="9.042s" fill="remove" keyTimes="0;.041;1" repeatCount="indefinite" restart="always" values="inline;none;none">
			</animate>
	</g>
	<g id="Symbol-91" transform="translate(194.45 105.25)">
		
			<linearGradient id="Layer50_0_1_STROKES_00000085220270628576725910000009872615102833539973_" gradientUnits="userSpaceOnUse" x1="-159.1508" y1="166.8521" x2="-159.1508" y2="82.5521" gradientTransform="matrix(1 0 0 -1 194.45 232.1542)">
			<stop  offset="0.2784" style="stop-color:#58B6A5"/>
			<stop  offset="0.8353" style="stop-color:#41938A"/>
		</linearGradient>
		
			<path id="Layer50_0_1_STROKES" style="fill:none;stroke:url(#Layer50_0_1_STROKES_00000085220270628576725910000009872615102833539973_);stroke-width:11;stroke-miterlimit:10;" d="
			M41.1,68.5l-2.5,4.7c-1.9,4.2-3.6,9.1-4.9,14.6c-4.3,17.5-4.6,37.8-1.1,61.1"/>
		
			<linearGradient id="Layer51_0_1_STROKES_00000042695808141135061340000006293715195098442936_" gradientUnits="userSpaceOnUse" x1="-100.2364" y1="91.089" x2="-100.2364" y2="169.039" gradientTransform="matrix(1 0 0 -1 194.45 232.1542)">
			<stop  offset="0.2784" style="stop-color:#58B6A5"/>
			<stop  offset="0.8353" style="stop-color:#41938A"/>
		</linearGradient>
		
			<path id="Layer51_0_1_STROKES" style="fill:none;stroke:url(#Layer51_0_1_STROKES_00000042695808141135061340000006293715195098442936_);stroke-width:11;stroke-miterlimit:10;" d="
			M86.6,67.2l2.6,3.3c2,3.1,3.8,7,5.4,11.6c5,14.8,7,34.4,5.8,58.8"/>
		
			<linearGradient id="SVGID_00000157987232788538754850000006858476859115195807_" gradientUnits="userSpaceOnUse" x1="-135.9037" y1="153.3769" x2="-149.5078" y2="263.3851" gradientTransform="matrix(1 0 0 -1 194.45 232.1542)">
			<stop  offset="0.4745" style="stop-color:#D2E6F5"/>
			<stop  offset="0.5804" style="stop-color:#CCE3F4"/>
			<stop  offset="0.7255" style="stop-color:#BCDBF1"/>
			<stop  offset="0.8941" style="stop-color:#A2CEED"/>
			<stop  offset="1" style="stop-color:#90C5E9"/>
		</linearGradient>
		<path style="fill:url(#SVGID_00000157987232788538754850000006858476859115195807_);" d="M33-29.7L15.4-6.2l-3.6,64.2
			c-0.2,3.9,0.9,7.2,3.6,10.1c2.6,2.9,5.8,4.4,9.7,4.5l66.4,2.1l-2.2-107L33-29.7z"/>
		
			<linearGradient id="SVGID_00000000940129874129815430000015312209613773592735_" gradientUnits="userSpaceOnUse" x1="-129.3465" y1="204.2869" x2="-76.0025" y2="217.4485" gradientTransform="matrix(1 0 0 -1 194.45 232.1542)">
			<stop  offset="0" style="stop-color:#5B96CC"/>
			<stop  offset="1" style="stop-color:#90C5E9"/>
		</linearGradient>
		<path style="fill:url(#SVGID_00000000940129874129815430000015312209613773592735_);" d="M106.6-31.3l-17.3-1L74.2-8.5l-1.7,62.9
			c-0.2,5.4,1.6,10.1,5.4,14.1c3.7,4,8.3,6,13.7,6.2c6.1,0.2,11.3-1.9,15.6-6.1c4.4-4.2,6.5-9.4,6.5-15.5l-0.3-42.7
			c-0.2-11.5-1.4-21.9-3.6-31.2L106.6-31.3z"/>
		<path id="Layer54_0_1_STROKES" class="st17" d="M12.9,48.2l100.6,0.2"/>
		<path class="st18" d="M57.7,2c-0.8-0.8-1.8-1.2-3-1.2L30.4,1.4c-1.1,0-2,0.4-2.8,1.2s-1.2,1.7-1.2,2.8l-0.8,24.5
			c0,1.2,0.4,2.2,1.2,3c0.8,0.8,1.8,1.2,3,1.2l24.6-0.2c1.1,0,2-0.4,2.9-1.2c0.8-0.8,1.2-1.7,1.2-2.8L58.9,5
			C58.9,3.8,58.5,2.8,57.7,2z"/>
		<path class="st19" d="M26.9,137.1c-7.9,0-14.7,2.9-20.5,8.8c-2.9,2.9-5,5.9-6.3,8.8h44.5c0-4.9-1.7-9-5.2-12.4
			C35.9,138.8,31.7,137.1,26.9,137.1z"/>
		<path class="st19" d="M100.7,137.1c-4.9,0-9,1.7-12.5,5.1c-3.4,3.4-5.2,7.6-5.2,12.4h38.3c-0.3-2.9-1.4-5.9-3.2-8.8
			C114.3,140,108.5,137.1,100.7,137.1z"/>
		<path id="Layer58_0_1_STROKES" class="st17" d="M83,154.6h38.3"/>
		<path id="Layer59_0_1_STROKES" class="st17" d="M44.5,154.6H0"/>
		
			<linearGradient id="SVGID_00000031209901026726011180000001634006260400318881_" gradientUnits="userSpaceOnUse" x1="-127.2943" y1="268.7245" x2="-155.2693" y2="232.8505" gradientTransform="matrix(1 0 0 -1 194.45 232.1542)">
			<stop  offset="0" style="stop-color:#D2E6F5"/>
			<stop  offset="1" style="stop-color:#90C5E9"/>
		</linearGradient>
		<path style="fill:url(#SVGID_00000031209901026726011180000001634006260400318881_);" d="M33-29.7L15.4-6.2l58.7-2.3l15.1-23.8
			L33-29.7z"/>
	</g>
	<g class="st8">
		<g id="Symbol-89" transform="translate(56.15 160.45)" class="st9">
			
				<linearGradient id="Layer13_0_1_STROKES_00000072237960562944646540000002548832345673265553_" gradientUnits="userSpaceOnUse" x1="-59.15" y1="134.7021" x2="95.65" y2="134.7021" gradientTransform="matrix(1 0 0 -1 56.15 176.9542)">
				<stop  offset="0" style="stop-color:#E38D44;stop-opacity:0"/>
				<stop  offset="0.6823" style="stop-color:#E38D44"/>
			</linearGradient>
			
				<path id="Layer13_0_1_STROKES" style="fill:none;stroke:url(#Layer13_0_1_STROKES_00000072237960562944646540000002548832345673265553_);stroke-width:6;stroke-linecap:round;stroke-miterlimit:10;" d="
				M0,96h65.6c7,0,13-2.5,17.9-7.5c5-5,7.4-10.9,7.4-17.9V13.9c0-7,2.5-13,7.5-18c4.9-5,10.9-7.5,17.9-7.5h32.5"/>
			<path class="st19" d="M140.8-13.7c-0.4-3.7-2.1-6.7-5.1-9c-2.9-2.3-6.2-3.2-9.9-2.8c-3.7,0.5-6.7,2.2-9,5.1s-3.2,6.3-2.8,10
				c0.5,3.7,2.2,6.7,5.1,9s6.2,3.2,10,2.8c3.7-0.5,6.7-2.2,9-5.2C140.3-6.7,141.3-10,140.8-13.7z"/>
			<path class="st22" d="M164.1,2v-34.2h-11.5c-4.7,0-8.8,1.7-12.1,5c-3.3,3.3-5,7.4-5,12.1s1.7,8.8,5,12.1c3.3,3.3,7.4,5,12.1,5
				H164.1z"/>
			<path class="st23" d="M173.6-15.1c0-4.7-0.9-8.8-2.8-12.1s-4.1-5-6.8-5c-2.6,0-4.9,1.7-6.8,5c-1.9,3.3-2.8,7.4-2.8,12.1
				s0.9,8.8,2.8,12.1c1.9,3.3,4.1,5,6.8,5c2.6,0,4.9-1.7,6.8-5C172.7-6.4,173.6-10.4,173.6-15.1z"/>
			<path class="st22" d="M183.1-20.6c0.5-0.5,0.8-1.1,0.8-1.8c0-0.7-0.3-1.4-0.8-1.9c-0.5-0.5-1.1-0.8-1.9-0.8h-15.1
				c-0.7,0-1.3,0.3-1.8,0.8c-0.5,0.5-0.8,1.1-0.8,1.9c0,0.7,0.3,1.3,0.8,1.8c0.5,0.5,1.1,0.8,1.8,0.8h15.1
				C181.9-19.8,182.6-20.1,183.1-20.6z"/>
			<path class="st22" d="M183.9-7.9c0-0.7-0.3-1.4-0.8-1.9c-0.5-0.5-1.1-0.8-1.9-0.8h-15.1c-0.7,0-1.3,0.3-1.8,0.8
				c-0.5,0.5-0.8,1.1-0.8,1.9s0.3,1.4,0.8,1.9c0.5,0.5,1.1,0.8,1.8,0.8h15.1c0.7,0,1.4-0.3,1.9-0.8C183.6-6.5,183.9-7.2,183.9-7.9z"
				/>
		</g>
		
			<animate  accumulate="none" additive="replace" attributeName="display" calcMode="linear" dur="9.042s" fill="remove" keyTimes="0;.101;.249;1" repeatCount="indefinite" restart="always" values="none;inline;none;none">
			</animate>
	</g>
	<g class="st8">
		<g id="Symbol-88" transform="translate(60.15 160.45)" class="st9">
			
				<linearGradient id="Layer7_0_1_STROKES_00000183239276151840937070000009248191611657001640_" gradientUnits="userSpaceOnUse" x1="-63.15" y1="134.7021" x2="91.65" y2="134.7021" gradientTransform="matrix(1 0 0 -1 60.15 176.9542)">
				<stop  offset="0" style="stop-color:#E38D44;stop-opacity:0"/>
				<stop  offset="0.6823" style="stop-color:#E38D44"/>
			</linearGradient>
			
				<path id="Layer7_0_1_STROKES" style="fill:none;stroke:url(#Layer7_0_1_STROKES_00000183239276151840937070000009248191611657001640_);stroke-width:6;stroke-linecap:round;stroke-miterlimit:10;" d="
				M0,96h65.6c7,0,13-2.5,17.9-7.5c5-5,7.4-10.9,7.4-17.9V13.9c0-7,2.5-13,7.5-18c4.9-5,10.9-7.5,17.9-7.5h32.5"/>
			<path class="st19" d="M140.8-13.7c-0.4-3.7-2.1-6.7-5.1-9c-2.9-2.3-6.2-3.2-9.9-2.8c-3.7,0.5-6.7,2.2-9,5.1s-3.2,6.3-2.8,10
				c0.5,3.7,2.2,6.7,5.1,9s6.2,3.2,10,2.8c3.7-0.5,6.7-2.2,9-5.2C140.3-6.7,141.3-10,140.8-13.7z"/>
			<path class="st22" d="M164.1,2v-34.2h-11.5c-4.7,0-8.8,1.7-12.1,5c-3.3,3.3-5,7.4-5,12.1s1.7,8.8,5,12.1c3.3,3.3,7.4,5,12.1,5
				H164.1z"/>
			<path class="st23" d="M173.6-15.1c0-4.7-0.9-8.8-2.8-12.1s-4.1-5-6.8-5c-2.6,0-4.9,1.7-6.8,5c-1.9,3.3-2.8,7.4-2.8,12.1
				s0.9,8.8,2.8,12.1c1.9,3.3,4.1,5,6.8,5c2.6,0,4.9-1.7,6.8-5C172.7-6.4,173.6-10.4,173.6-15.1z"/>
			<path class="st22" d="M183.1-20.6c0.5-0.5,0.8-1.1,0.8-1.8c0-0.7-0.3-1.4-0.8-1.9c-0.5-0.5-1.1-0.8-1.9-0.8h-15.1
				c-0.7,0-1.3,0.3-1.8,0.8c-0.5,0.5-0.8,1.1-0.8,1.9c0,0.7,0.3,1.3,0.8,1.8c0.5,0.5,1.1,0.8,1.8,0.8h15.1
				C181.9-19.8,182.6-20.1,183.1-20.6z"/>
			<path class="st22" d="M183.9-7.9c0-0.7-0.3-1.4-0.8-1.9c-0.5-0.5-1.1-0.8-1.9-0.8h-15.1c-0.7,0-1.3,0.3-1.8,0.8
				c-0.5,0.5-0.8,1.1-0.8,1.9s0.3,1.4,0.8,1.9c0.5,0.5,1.1,0.8,1.8,0.8h15.1c0.7,0,1.4-0.3,1.9-0.8C183.6-6.5,183.9-7.2,183.9-7.9z"
				/>
		</g>
		
			<animate  accumulate="none" additive="replace" attributeName="display" calcMode="linear" dur="9.042s" fill="remove" keyTimes="0;.041;.101;.249;1" repeatCount="indefinite" restart="always" values="none;inline;none;inline;inline">
			</animate>
	</g>
	<g>
		<g id="Symbol-87" transform="translate(55.75 160.45)">
			
				<linearGradient id="Layer1_0_1_STROKES_00000093151334722299242260000013818664428070436529_" gradientUnits="userSpaceOnUse" x1="-58.75" y1="134.7521" x2="96.05" y2="134.7521" gradientTransform="matrix(1 0 0 -1 55.75 176.9542)">
				<stop  offset="0" style="stop-color:#E38D44;stop-opacity:0"/>
				<stop  offset="0.6823" style="stop-color:#E38D44"/>
			</linearGradient>
			
				<path id="Layer1_0_1_STROKES" style="fill:none;stroke:url(#Layer1_0_1_STROKES_00000093151334722299242260000013818664428070436529_);stroke-width:6;stroke-linecap:round;stroke-miterlimit:10;" d="
				M0,96h65.6c7,0,13-2.5,17.9-7.4c5-5,7.4-11,7.4-18V13.9c0-7,2.5-13,7.5-18c4.9-5,10.9-7.5,17.9-7.5h32.5"/>
			<path class="st19" d="M140.8-13.7c-0.4-3.7-2.1-6.7-5.1-9c-2.9-2.3-6.2-3.2-9.9-2.8c-3.7,0.5-6.7,2.2-9,5.1s-3.2,6.3-2.8,10
				c0.5,3.7,2.2,6.7,5.1,9s6.2,3.2,10,2.8c3.7-0.5,6.7-2.2,9-5.2C140.3-6.7,141.3-10,140.8-13.7z"/>
			<path class="st22" d="M164.1,2v-34.2h-11.5c-4.7,0-8.8,1.7-12.1,5c-3.3,3.3-5,7.4-5,12.1s1.7,8.8,5,12.1c3.3,3.3,7.4,5,12.1,5
				H164.1z"/>
			<path class="st23" d="M173.6-15.1c0-4.7-0.9-8.8-2.8-12.1s-4.1-5-6.8-5c-2.6,0-4.9,1.7-6.8,5c-1.9,3.3-2.8,7.4-2.8,12.1
				s0.9,8.8,2.8,12.1c1.9,3.3,4.1,5,6.8,5c2.6,0,4.9-1.7,6.8-5C172.7-6.4,173.6-10.4,173.6-15.1z"/>
			<path class="st22" d="M183.1-20.6c0.5-0.5,0.8-1.1,0.8-1.8c0-0.7-0.3-1.4-0.8-1.9c-0.5-0.5-1.1-0.8-1.9-0.8h-15.1
				c-0.7,0-1.3,0.3-1.8,0.8c-0.5,0.5-0.8,1.1-0.8,1.9c0,0.7,0.3,1.3,0.8,1.8c0.5,0.5,1.1,0.8,1.8,0.8h15.1
				C181.9-19.8,182.6-20.1,183.1-20.6z"/>
			<path class="st22" d="M183.9-7.9c0-0.7-0.3-1.4-0.8-1.9c-0.5-0.5-1.1-0.8-1.9-0.8h-15.1c-0.7,0-1.3,0.3-1.8,0.8
				c-0.5,0.5-0.8,1.1-0.8,1.9s0.3,1.4,0.8,1.9c0.5,0.5,1.1,0.8,1.8,0.8h15.1c0.7,0,1.4-0.3,1.9-0.8C183.6-6.5,183.9-7.2,183.9-7.9z"
				/>
		</g>
		
			<animate  accumulate="none" additive="replace" attributeName="display" calcMode="linear" dur="9.042s" fill="remove" keyTimes="0;.041;1" repeatCount="indefinite" restart="always" values="inline;none;none">
			</animate>
	</g>
	<g id="Symbol-86" transform="translate(224.25 140.85)">
		<g id="Symbol-105">
			<g id="Layer47_0_FILL" class="st8">
				<path class="st26" d="M3.1-28.5c0.3-0.4,0.5-0.8,0.5-1.4c0-0.5-0.2-1-0.5-1.4c-0.4-0.4-0.8-0.5-1.3-0.5c-0.5,0-0.9,0.2-1.2,0.6
					C0.2-30.7,0-30.3,0-29.7c0,0.5,0.2,1,0.6,1.4c0.3,0.4,0.7,0.5,1.2,0.5C2.3-27.9,2.7-28.1,3.1-28.5z"/>
				<path class="st26" d="M8.7-28.7c0.4-0.4,0.6-0.9,0.6-1.4c0-0.5-0.2-1-0.6-1.4c-0.4-0.4-0.8-0.5-1.3-0.5s-1,0.2-1.3,0.7
					C5.6-31,5.4-30.5,5.4-30c0,0.5,0.2,1,0.6,1.4C6.4-28.2,6.8-28,7.3-28C7.9-28.1,8.3-28.3,8.7-28.7z"/>
				<path class="st26" d="M14.8-28.8c0.4-0.4,0.6-0.9,0.6-1.5c0-0.6-0.2-1-0.6-1.5c-0.4-0.4-0.9-0.6-1.4-0.5c-0.6,0-1.1,0.2-1.4,0.6
					c-0.4,0.4-0.6,0.9-0.6,1.5c0,0.6,0.2,1,0.6,1.4c0.4,0.4,0.9,0.6,1.4,0.6C13.9-28.2,14.3-28.4,14.8-28.8z"/>
				
					<animate  accumulate="none" additive="replace" attributeName="display" calcMode="linear" dur="3s" fill="remove" keyTimes="0;.486;1" repeatCount="indefinite" restart="always" values="none;inline;inline">
					</animate>
			</g>
			<g id="Layer45_0_FILL" class="st8">
				<path class="st26" d="M8.6-28.6c0.4-0.4,0.6-0.9,0.6-1.5c0-0.5-0.2-1-0.6-1.4C8.3-31.9,7.8-32,7.3-32c-0.5,0-1,0.2-1.4,0.6
					c-0.4,0.4-0.5,0.9-0.5,1.4s0.2,1,0.5,1.4C6.3-28.2,6.8-28,7.3-28C7.8-28,8.3-28.2,8.6-28.6z"/>
				<path class="st26" d="M14.8-28.8c0.4-0.4,0.6-0.9,0.6-1.5c0-0.6-0.2-1-0.6-1.4s-0.9-0.6-1.4-0.6c-0.6,0-1.1,0.2-1.4,0.7
					c-0.4,0.4-0.6,0.9-0.6,1.5c0,0.6,0.2,1,0.6,1.4c0.4,0.4,0.9,0.6,1.4,0.5C13.9-28.2,14.3-28.4,14.8-28.8z"/>
				
					<animate  accumulate="none" additive="replace" attributeName="display" calcMode="linear" dur="3s" fill="remove" keyTimes="0;.347;.486;1" repeatCount="indefinite" restart="always" values="none;inline;none;none">
					</animate>
			</g>
			<g id="Layer43_0_FILL" class="st8">
				<path class="st26" d="M3.1-28.5c0.3-0.4,0.5-0.8,0.5-1.4c0-0.5-0.2-1-0.5-1.4c-0.4-0.4-0.8-0.5-1.3-0.5c-0.5,0-0.9,0.2-1.2,0.6
					C0.2-30.7,0-30.3,0-29.7c0,0.5,0.2,1,0.6,1.4c0.3,0.4,0.7,0.5,1.2,0.5C2.3-27.9,2.7-28.1,3.1-28.5z"/>
				<path class="st26" d="M8.6-28.7c0.4-0.4,0.6-0.9,0.6-1.4c0-0.5-0.2-1-0.6-1.4c-0.4-0.4-0.8-0.5-1.3-0.5s-1,0.2-1.4,0.7
					C5.6-31,5.4-30.5,5.4-30s0.2,1,0.5,1.4C6.3-28.2,6.8-28,7.3-28C7.8-28.1,8.3-28.3,8.6-28.7z"/>
				
					<animate  accumulate="none" additive="replace" attributeName="display" calcMode="linear" dur="3s" fill="remove" keyTimes="0;.208;.347;1" repeatCount="indefinite" restart="always" values="none;inline;none;none">
					</animate>
			</g>
			<g id="Layer41_0_FILL" class="st8">
				<path class="st26" d="M3.1-28.5c0.3-0.4,0.5-0.8,0.5-1.4c0-0.5-0.2-1-0.5-1.4c-0.4-0.4-0.8-0.5-1.3-0.5c-0.5,0-0.9,0.2-1.2,0.6
					C0.2-30.7,0-30.3,0-29.7c0,0.5,0.2,1,0.6,1.4c0.3,0.4,0.7,0.5,1.2,0.5C2.3-27.9,2.7-28.1,3.1-28.5z"/>
				<path class="st26" d="M14.8-28.8c0.4-0.4,0.6-0.9,0.6-1.5c0-0.6-0.2-1-0.6-1.5c-0.4-0.4-0.9-0.6-1.4-0.5c-0.6,0-1.1,0.2-1.4,0.6
					c-0.4,0.4-0.6,0.9-0.6,1.5c0,0.6,0.2,1,0.6,1.4c0.4,0.4,0.9,0.6,1.4,0.6C13.9-28.2,14.3-28.4,14.8-28.8z"/>
				
					<animate  accumulate="none" additive="replace" attributeName="display" calcMode="linear" dur="3s" fill="remove" keyTimes="0;.097;.208;1" repeatCount="indefinite" restart="always" values="none;inline;none;none">
					</animate>
			</g>
			<g id="Layer38_0_FILL">
				<path class="st27" d="M3.1-28.5c0.3-0.4,0.5-0.8,0.5-1.4c0-0.5-0.2-1-0.5-1.4c-0.4-0.4-0.8-0.5-1.3-0.5c-0.5,0-0.9,0.2-1.2,0.6
					C0.2-30.7,0-30.3,0-29.7c0,0.5,0.2,1,0.6,1.4c0.3,0.4,0.7,0.5,1.2,0.5C2.3-27.9,2.7-28.1,3.1-28.5z"/>
				<path class="st27" d="M8.7-28.7c0.4-0.4,0.6-0.9,0.6-1.4c0-0.5-0.2-1-0.6-1.4c-0.4-0.4-0.8-0.5-1.3-0.5s-1,0.2-1.3,0.7
					C5.6-31,5.4-30.5,5.4-30c0,0.5,0.2,1,0.6,1.4C6.4-28.2,6.8-28,7.3-28C7.9-28.1,8.3-28.3,8.7-28.7z"/>
				<path class="st27" d="M14.8-28.8c0.4-0.4,0.6-0.9,0.6-1.5c0-0.6-0.2-1-0.6-1.5c-0.4-0.4-0.9-0.6-1.4-0.5c-0.6,0-1.1,0.2-1.4,0.6
					c-0.4,0.4-0.6,0.9-0.6,1.5c0,0.6,0.2,1,0.6,1.4c0.4,0.4,0.9,0.6,1.4,0.6C13.9-28.2,14.3-28.4,14.8-28.8z"/>
				
					<animate  accumulate="none" additive="replace" attributeName="display" calcMode="linear" dur="3s" fill="remove" keyTimes="0;.097;1" repeatCount="indefinite" restart="always" values="inline;none;none">
					</animate>
			</g>
		</g>
	</g>
	<g class="st8">
		<g id="Symbol-84" transform="translate(278.95 120.4)" class="st9">
			
				<linearGradient id="Layer36_0_1_STROKES_00000010288542289872360040000001339475616058965639_" gradientUnits="userSpaceOnUse" x1="-241.8188" y1="227.5309" x2="-290.5842" y2="215.5022" gradientTransform="matrix(1 0 0 -1 278.95 217.0042)">
				<stop  offset="0.2784" style="stop-color:#58B6A5"/>
				<stop  offset="0.8353" style="stop-color:#41938A"/>
			</linearGradient>
			
				<path id="Layer36_0_1_STROKES" style="fill:none;stroke:url(#Layer36_0_1_STROKES_00000010288542289872360040000001339475616058965639_);stroke-width:11;stroke-linecap:round;stroke-miterlimit:10;" d="
				M15.6-32.3l5.8,3.9c4.1,3.4,6.9,7.2,8.3,11.3C34.3-3.9,24.4,10.3,0,25.7"/>
		</g>
		
			<animate  accumulate="none" additive="replace" attributeName="display" calcMode="linear" dur="9.042s" fill="remove" keyTimes="0;.101;.249;1" repeatCount="indefinite" restart="always" values="none;inline;none;none">
			</animate>
	</g>
	<g class="st8">
		<g id="Symbol-83" transform="translate(273.45 120.4)" class="st9">
			
				<linearGradient id="Layer35_0_1_STROKES_00000160901523447728686370000007150700347968428460_" gradientUnits="userSpaceOnUse" x1="-231.0142" y1="228.2861" x2="-279.7642" y2="216.2611" gradientTransform="matrix(1 0 0 -1 273.45 217.0042)">
				<stop  offset="0.2784" style="stop-color:#58B6A5"/>
				<stop  offset="0.8353" style="stop-color:#41938A"/>
			</linearGradient>
			
				<path id="Layer35_0_1_STROKES" style="fill:none;stroke:url(#Layer35_0_1_STROKES_00000160901523447728686370000007150700347968428460_);stroke-width:11;stroke-linecap:round;stroke-miterlimit:10;" d="
				M21.1-32.3l5.8,3.9c4.1,3.4,6.9,7.2,8.3,11.3C39.8-3.9,28,10.3,0,25.5"/>
		</g>
		
			<animate  accumulate="none" additive="replace" attributeName="display" calcMode="linear" dur="9.042s" fill="remove" keyTimes="0;.041;.101;.249;1" repeatCount="indefinite" restart="always" values="none;inline;none;inline;inline">
			</animate>
	</g>
	<g>
		<g id="Symbol-82" transform="translate(278.95 120.4)">
			
				<linearGradient id="Layer34_0_1_STROKES_00000029041402288456960290000013753978945099081914_" gradientUnits="userSpaceOnUse" x1="-241.8188" y1="227.5309" x2="-290.5842" y2="215.5022" gradientTransform="matrix(1 0 0 -1 278.95 217.0042)">
				<stop  offset="0.2784" style="stop-color:#58B6A5"/>
				<stop  offset="0.8353" style="stop-color:#41938A"/>
			</linearGradient>
			
				<path id="Layer34_0_1_STROKES" style="fill:none;stroke:url(#Layer34_0_1_STROKES_00000029041402288456960290000013753978945099081914_);stroke-width:11;stroke-linecap:round;stroke-miterlimit:10;" d="
				M15.6-32.3l5.8,3.9c4.1,3.4,6.9,7.2,8.3,11.3C34.3-3.9,24.4,10.3,0,25.7"/>
		</g>
		
			<animate  accumulate="none" additive="replace" attributeName="display" calcMode="linear" dur="9.042s" fill="remove" keyTimes="0;.041;1" repeatCount="indefinite" restart="always" values="inline;none;none">
			</animate>
	</g>
	<g id="Symbol-81" transform="translate(361.35 223.45)">
		
			<animateTransform  accumulate="none" additive="replace" attributeName="transform" calcMode="linear" dur="9.042s" fill="remove" keyTimes="0;.037;.041;.097;.101;.244;.249;1" repeatCount="indefinite" restart="always" type="translate" values="361.35,223.45;361.35,223.45;356.2,223.45;356.2,223.45;360.85,223.45;360.85,223.45;354.75,223.45;354.75,223.45">
			</animateTransform>
		
			<linearGradient id="Layer66_0_1_STROKES_00000069374253706659084360000012799965541129214140_" gradientUnits="userSpaceOnUse" x1="-231.3" y1="136.9271" x2="-460.85" y2="136.9271" gradientTransform="matrix(1 0 0 -1 361.35 113.9542)">
			<stop  offset="0" style="stop-color:#E38D44;stop-opacity:0"/>
			<stop  offset="0.7137" style="stop-color:#E38D44"/>
		</linearGradient>
		
			<path id="Layer66_0_1_STROKES" style="fill:none;stroke:url(#Layer66_0_1_STROKES_00000069374253706659084360000012799965541129214140_);stroke-width:6;stroke-linecap:round;stroke-miterlimit:10;" d="
			M127.1,30.8H-13.2c-7,0-13-2.5-17.9-7.5c-5-4.9-7.4-10.9-7.4-17.9v-56.7c0-7-2.5-13-7.5-17.9c-5-5-11-7.5-18-7.4h-32.5"/>
		<path class="st22" d="M-94-90.3c-3.3-3.3-7.4-5-12.1-5h-11.4V-61h11.4c4.7,0,8.8-1.7,12.1-5c3.4-3.4,5.1-7.4,5.1-12.2
			C-88.9-82.9-90.6-87-94-90.3z"/>
		<path class="st22" d="M-110.8-90.3c-1.9-3.3-4.1-5-6.8-5c-2.6,0-4.9,1.7-6.7,5c-1.9,3.3-2.8,7.4-2.8,12.1c0,4.7,0.9,8.8,2.8,12.2
			c1.8,3.3,4.1,5,6.7,5c2.6,0,4.9-1.7,6.8-5c1.9-3.3,2.8-7.4,2.8-12.2C-108-82.9-108.9-87-110.8-90.3z"/>
		<g id="FlashAICB_hand-and-plug_.__3CClip-Group.__3E" transform="translate(-127.8 -64.65)">
			<g>
				<path id="Layer71_0_1_STROKES" class="st32" d="M15.4,4.3c-2.6,0-4.9-1.7-6.8-5.2S5.8-8.6,5.8-13.5c0-4.9,0.9-9.1,2.8-12.6
					s4.1-5.2,6.8-5.2"/>
			</g>
		</g>
		<path class="st19" d="M-86.8-89.4c-3.7,0.6-6.6,2.4-8.8,5.4c-2.2,3-3,6.3-2.4,10.1c0.6,3.7,2.4,6.6,5.4,8.8c3,2.2,6.4,3,10.1,2.4
			c3.7-0.6,6.7-2.4,8.8-5.4c2.2-3,3-6.3,2.4-10c-0.6-3.7-2.4-6.7-5.4-8.9C-79.7-89.2-83-90-86.8-89.4z"/>
	</g>
</g>
</svg>
